<svg xmlns="http://www.w3.org/2000/svg" width="280" height="213.217" viewBox="0 0 280 213.217">
    <g>
        <path fill="#ffbf1d" d="M320.989 58.234h125.189v107.584q0 26.831-9.635 44.581a91.683 91.683 0 0 1-25.009 29.482 134.2 134.2 0 0 1-34.234 18.864q-18.856 7.127-37.3 12.706l-18.45-33.525a190.178 190.178 0 0 0 23.89-10.758 68.841 68.841 0 0 0 16.207-11.881 40.067 40.067 0 0 0 9.228-14.662 57.937 57.937 0 0 0 2.932-19.421h-52.818zm-154.811 0h124.91v107.584q0 26.831-9.635 44.581a92.364 92.364 0 0 1-24.877 29.482 131.85 131.85 0 0 1-34.09 18.863q-18.851 7.127-37.3 12.706l-18.724-33.525a190.174 190.174 0 0 0 23.89-10.758 69.018 69.018 0 0 0 16.211-11.881 40.146 40.146 0 0 0 9.221-14.662 57.937 57.937 0 0 0 2.932-19.421h-52.538z" transform="translate(-166.178 -58.234) translate(0 0)"/>
    </g>
</svg>
