<svg xmlns="http://www.w3.org/2000/svg" width="87" height="87" viewBox="0 0 87 87">
    <rect width="87" height="87" fill="#353a50" rx="29"/>
    <path d="M284.659 810.546a2.131 2.131 0 0 0 1.072-3.978l-16.073-9.238 16.567-9.523a2.126 2.126 0 0 0 .784-2.911 2.148 2.148 0 0 0-2.926-.78l-19.778 11.369a2.128 2.128 0 0 0-1.072 1.845v22.737a2.141 2.141 0 0 0 4.283 0V801.02l16.075 9.24a2.162 2.162 0 0 0 1.068.286zm24.15 16.2l-16.567 9.523v-18.478a2.141 2.141 0 0 0-4.283 0v18.478l-16.567-9.523a2.134 2.134 0 1 0-2.14 3.693l19.778 11.366a2.155 2.155 0 0 0 2.143 0l19.778-11.366a2.125 2.125 0 0 0 .784-2.913 2.147 2.147 0 0 0-2.926-.78zm7.086-31.261l-19.778-11.369a2.135 2.135 0 1 0-2.143 3.693l16.567 9.521-16.073 9.238a2.131 2.131 0 0 0 1.072 3.978 2.155 2.155 0 0 0 1.068-.285l16.075-9.238v19.044a2.14 2.14 0 0 0 4.281 0V797.33a2.127 2.127 0 0 0-1.069-1.845z" transform="translate(-245.431 -767.647)" style="mix-blend-mode:overlay;isolation:isolate" fill="#353a50"/>
    <g>
        <path fill="#ffbf1d" d="M284.659 810.546a2.131 2.131 0 0 0 1.072-3.978l-16.073-9.238 16.567-9.523a2.126 2.126 0 0 0 .784-2.911 2.148 2.148 0 0 0-2.926-.78l-19.778 11.369a2.128 2.128 0 0 0-1.072 1.845v22.737a2.141 2.141 0 0 0 4.283 0V801.02l16.075 9.24a2.162 2.162 0 0 0 1.068.286zm24.15 16.2l-16.567 9.523v-18.478a2.141 2.141 0 0 0-4.283 0v18.478l-16.567-9.523a2.134 2.134 0 1 0-2.14 3.693l19.778 11.366a2.155 2.155 0 0 0 2.143 0l19.778-11.366a2.125 2.125 0 0 0 .784-2.913 2.147 2.147 0 0 0-2.926-.78zm7.086-31.261l-19.778-11.369a2.135 2.135 0 1 0-2.143 3.693l16.567 9.521-16.073 9.238a2.131 2.131 0 0 0 1.072 3.978 2.155 2.155 0 0 0 1.068-.285l16.075-9.238v19.044a2.14 2.14 0 0 0 4.281 0V797.33a2.127 2.127 0 0 0-1.069-1.845z" transform="translate(16.386 14.565) translate(-263.233 -783.83)"/>
    </g>
</svg>
