<svg xmlns="http://www.w3.org/2000/svg" width="361" height="401.001" viewBox="0 0 361 401.001">
    <g opacity="0.5">
        <path fill="#fff" stroke="rgba(0,0,0,0)" d="M160 400a20 20 0 0 1 0-40h60a19.992 19.992 0 0 1 17.325 10H300a10.03 10.03 0 0 0 10-10v-41.26A40.016 40.016 0 0 1 280 280v-40a40.016 40.016 0 0 1 30-38.739V160h30v45.352A39.981 39.981 0 0 1 360 240v40a40.017 40.017 0 0 1-30 38.739V360a30.037 30.037 0 0 1-30 30h-62.676A19.992 19.992 0 0 1 220 400zM0 280v-40a39.981 39.981 0 0 1 20-34.648V160h30v41.26A40.016 40.016 0 0 1 80 240v40a40 40 0 0 1-80 0zm310-120c0-71.68-58.32-130-130-130S50 88.32 50 160H20a160 160 0 0 1 320 0z" transform="translate(0.499 0.496) translate(0.001 0.005)"/>
    </g>
</svg>
