<svg xmlns="http://www.w3.org/2000/svg" width="32.011" height="32.012" viewBox="0 0 32.011 32.012"><path d="M27.272,27.279h-4.74V19.851c0-1.771-.036-4.051-2.47-4.051-2.472,0-2.849,1.927-2.849,3.92v7.559h-4.74V12h4.554v2.082h.061a5,5,0,0,1,4.495-2.468c4.8,0,5.691,3.161,5.691,7.276v8.384ZM7.119,9.914A2.753,2.753,0,1,1,9.872,7.16,2.75,2.75,0,0,1,7.119,9.914ZM9.5,27.279H4.742V12H9.5ZM29.644,0H2.362A2.334,2.334,0,0,0,0,2.306v27.4a2.333,2.333,0,0,0,2.362,2.306H29.64a2.342,2.342,0,0,0,2.372-2.306V2.306A2.343,2.343,0,0,0,29.64,0Z" fill="#ffbf1d"/></svg>