<svg xmlns="http://www.w3.org/2000/svg" width="31.994" height="31.993" viewBox="0 0 31.994 31.993"><path d="M16,0C11.651,0,11.108.02,9.4.1A11.8,11.8,0,0,0,5.519.84,7.834,7.834,0,0,0,2.685,2.685,7.805,7.805,0,0,0,.84,5.519,11.761,11.761,0,0,0,.1,9.4C.016,11.108,0,11.651,0,16s.02,4.888.1,6.595A11.8,11.8,0,0,0,.84,26.475a7.845,7.845,0,0,0,1.845,2.834,7.823,7.823,0,0,0,2.834,1.845A11.81,11.81,0,0,0,9.4,31.9c1.706.08,2.249.1,6.595.1s4.888-.02,6.595-.1a11.838,11.838,0,0,0,3.883-.744,8.175,8.175,0,0,0,4.679-4.679,11.8,11.8,0,0,0,.744-3.883c.08-1.706.1-2.249.1-6.595s-.02-4.888-.1-6.595a11.83,11.83,0,0,0-.744-3.883,7.851,7.851,0,0,0-1.845-2.834A7.794,7.794,0,0,0,26.475.84,11.769,11.769,0,0,0,22.592.1C20.885.016,20.343,0,16,0Zm0,2.879c4.27,0,4.779.021,6.465.095a8.814,8.814,0,0,1,2.969.553,5.264,5.264,0,0,1,3.037,3.035,8.832,8.832,0,0,1,.551,2.969c.076,1.688.093,2.194.093,6.465s-.02,4.779-.1,6.465a9,9,0,0,1-.561,2.969,5.079,5.079,0,0,1-1.2,1.842,4.991,4.991,0,0,1-1.84,1.194,8.9,8.9,0,0,1-2.979.551c-1.7.076-2.2.093-6.477.093s-4.78-.02-6.477-.1A9.071,9.071,0,0,1,6.5,28.452a4.954,4.954,0,0,1-1.838-1.2,4.857,4.857,0,0,1-1.2-1.84,9.078,9.078,0,0,1-.56-2.979c-.06-1.68-.081-2.2-.081-6.457S2.841,11.2,2.9,9.5a9.068,9.068,0,0,1,.56-2.978,4.742,4.742,0,0,1,1.2-1.841A4.731,4.731,0,0,1,6.5,3.481a8.854,8.854,0,0,1,2.961-.561c1.7-.06,2.2-.08,6.477-.08l.06.04Zm0,4.9A8.214,8.214,0,1,0,24.211,16,8.214,8.214,0,0,0,16,7.782Zm0,13.547A5.332,5.332,0,1,1,21.329,16,5.331,5.331,0,0,1,16,21.329ZM26.456,7.458a1.92,1.92,0,1,1-1.92-1.918A1.921,1.921,0,0,1,26.456,7.458Z" fill="#ffbf1d"/></svg>