<svg xmlns="http://www.w3.org/2000/svg" width="32" height="32" viewBox="0 0 32 32"><path d="M349.333,133.333a16,16,0,1,0,16,16A16,16,0,0,0,349.333,133.333Zm7.63,10.405c-.046.647-.416,2.913-.786,5.364l-1.156,7.26s-.092,1.064-.878,1.249a3.806,3.806,0,0,1-2.313-.833c-.185-.138-3.468-2.219-4.67-3.237a.875.875,0,0,1,.046-1.479c1.665-1.526,3.653-3.422,4.856-4.625.555-.555,1.109-1.849-1.2-.277l-6.52,4.393a2.719,2.719,0,0,1-2.127.046c-1.387-.416-3.006-.971-3.006-.971s-1.11-.694.786-1.433h0l10.775-4.44c1.063-.462,4.67-1.942,4.67-1.942S357.1,142.166,356.963,143.738Z" transform="translate(-333.333 -133.333)" fill="#ffbf1d"/></svg>