<svg xmlns="http://www.w3.org/2000/svg" width="1014.746" height="1099.947" viewBox="0 0 1014.746 1099.947"><g transform="translate(2.5 2.599)"><path d="M665.869,1285.878a40.051,40.051,0,0,0,20.152-74.761L383.98,1037.52,695.319,858.557a39.96,39.96,0,0,0,14.725-54.7A40.374,40.374,0,0,0,655.055,789.2l-371.67,213.644a40,40,0,0,0-20.152,34.677V1464.8a40.243,40.243,0,0,0,80.485,0V1106.874L645.8,1280.519A40.632,40.632,0,0,0,665.869,1285.878Zm453.839,304.441-311.34,178.966V1422.037a40.242,40.242,0,0,0-80.482,0v347.248L416.547,1590.319a40.108,40.108,0,1,0-40.224,69.4L748,1873.319a40.492,40.492,0,0,0,40.263,0l371.671-213.6a39.933,39.933,0,0,0,14.725-54.741A40.342,40.342,0,0,0,1119.708,1590.319Zm133.163-587.476L881.2,789.2a40.116,40.116,0,1,0-40.264,69.4l311.34,178.924-302.041,173.6a40.051,40.051,0,0,0,20.152,74.761,40.5,40.5,0,0,0,20.068-5.359l302.086-173.6V1464.8a40.221,40.221,0,0,0,80.441,0V1037.52A39.963,39.963,0,0,0,1252.87,1002.843Z" transform="translate(-263.233 -783.83)" fill="none" stroke="#ffbf1d" stroke-width="5"/></g></svg>